<svg width="27" height="26" viewBox="0 0 27 26" fill="none" xmlns="http://www.w3.org/2000/svg">
<path d="M19.5586 20.8095H14.5563L8.99113 24.5112C8.16575 25.0615 7.05274 24.4737 7.05274 23.4733V20.8095C3.30098 20.8095 0.799805 18.3083 0.799805 14.5566V7.05298C0.799805 3.30122 3.30098 0.800049 7.05274 0.800049H19.5586C23.3104 0.800049 25.8115 3.30122 25.8115 7.05298V14.5566C25.8115 18.3083 23.3104 20.8095 19.5586 20.8095Z" stroke="white" stroke-width="1.6" stroke-linecap="round" stroke-linejoin="round"/>
<path d="M13.3054 11.9677V11.7052C13.3054 10.8548 13.8307 10.4045 14.356 10.0419C14.8687 9.69169 15.3814 9.24149 15.3814 8.41611C15.3814 7.26556 14.456 6.34009 13.3054 6.34009C12.1549 6.34009 11.2295 7.26556 11.2295 8.41611" stroke="white" stroke-width="1.6" stroke-linecap="round" stroke-linejoin="round"/>
<path d="M13.3003 14.9566H13.3116" stroke="white" stroke-width="1.6" stroke-linecap="round" stroke-linejoin="round"/>
</svg>
